<svg viewBox="0 0 850 180" fill="none" xmlns="http://www.w3.org/2000/svg"
    preserveAspectRatio="xMinYMid">
<path fill-rule="evenodd" clip-rule="evenodd" d="M47 94C72.9573 94 94 72.9573 94 47C94 21.0427 72.9573 0 47 0C21.0427 0 0 21.0427 0 47C0 52.908 1.09009 58.5613 3.08008 63.7698L21.3945 32.0481L21.5125 32.116C29.7219 18.0432 47.7717 13.2397 61.896 21.3945C76.0596 29.5718 80.9124 47.6826 72.7351 61.8462C64.5579 76.0098 46.4468 80.8625 32.2834 72.6853C25.8467 68.969 21.333 63.2014 19.0913 56.6848L8.83911 74.4421C17.3726 86.2878 31.2856 94 47 94ZM63.7944 56.6843C58.468 65.9102 46.6709 69.0713 37.4453 63.7446C28.2195 58.4182 25.0583 46.6211 30.385 37.3955C35.7114 28.1697 47.5083 25.0085 56.7341 30.3352C65.96 35.6616 69.1211 47.4585 63.7944 56.6843ZM54.3669 51.551C52.0037 55.644 46.7698 57.0466 42.6768 54.6833C38.5835 52.3201 37.1812 47.0864 39.5444 42.9932C41.9075 38.9001 47.1414 37.4976 51.2346 39.8608C55.3276 42.2239 56.73 47.4578 54.3669 51.551Z" transform="translate(35 43)" fill="white"/>
<path d="M39.3276 34.34C39.3276 36.9067 38.861 39.2633 37.9276 41.41C37.041 43.5567 35.781 45.4233 34.1476 47.01C32.561 48.55 30.671 49.7633 28.4776 50.65C26.2843 51.49 23.9276 51.91 21.4076 51.91C18.8876 51.91 16.5309 51.49 14.3376 50.65C12.1443 49.7633 10.2543 48.55 8.66762 47.01C7.08095 45.4233 5.82095 43.5567 4.88762 41.41C4.00095 39.2633 3.55762 36.9067 3.55762 34.34C3.55762 31.7733 4.00095 29.44 4.88762 27.34C5.82095 25.1933 7.08095 23.35 8.66762 21.81C10.2543 20.27 12.1443 19.08 14.3376 18.24C16.5309 17.3533 18.8876 16.91 21.4076 16.91C23.9276 16.91 26.2843 17.3533 28.4776 18.24C30.671 19.08 32.561 20.27 34.1476 21.81C35.781 23.35 37.041 25.1933 37.9276 27.34C38.861 29.44 39.3276 31.7733 39.3276 34.34ZM32.4676 34.34C32.4676 32.7533 32.211 31.2367 31.6976 29.79C31.231 28.3433 30.531 27.0833 29.5976 26.01C28.6643 24.89 27.4976 24.0033 26.0976 23.35C24.7443 22.6967 23.181 22.37 21.4076 22.37C19.6343 22.37 18.0476 22.6967 16.6476 23.35C15.2943 24.0033 14.151 24.89 13.2176 26.01C12.2843 27.0833 11.561 28.3433 11.0476 29.79C10.581 31.2367 10.3476 32.7533 10.3476 34.34C10.3476 35.9267 10.581 37.4433 11.0476 38.89C11.561 40.3367 12.2843 41.62 13.2176 42.74C14.151 43.86 15.2943 44.7467 16.6476 45.4C18.0476 46.0533 19.6343 46.38 21.4076 46.38C23.181 46.38 24.7443 46.0533 26.0976 45.4C27.4976 44.7467 28.6643 43.86 29.5976 42.74C30.531 41.62 31.231 40.3367 31.6976 38.89C32.211 37.4433 32.4676 35.9267 32.4676 34.34ZM51.5322 67.8H44.9522V17.82H51.3922V23H51.6022C52.6756 21.2267 54.2389 19.78 56.2922 18.66C58.3922 17.4933 60.8189 16.91 63.5722 16.91C66.0456 16.91 68.2856 17.3533 70.2922 18.24C72.3456 19.1267 74.0956 20.3633 75.5422 21.95C77.0356 23.5367 78.1789 25.4033 78.9722 27.55C79.7656 29.65 80.1622 31.9133 80.1622 34.34C80.1622 36.7667 79.7656 39.0533 78.9722 41.2C78.1789 43.3467 77.0589 45.2133 75.6122 46.8C74.1656 48.3867 72.4156 49.6467 70.3622 50.58C68.3089 51.4667 65.9989 51.91 63.4322 51.91C61.0522 51.91 58.8122 51.3967 56.7122 50.37C54.6122 49.3433 52.9556 47.8967 51.7422 46.03H51.5322V67.8ZM73.3722 34.34C73.3722 32.8 73.1389 31.3067 72.6722 29.86C72.2056 28.4133 71.5056 27.13 70.5722 26.01C69.6389 24.89 68.4722 24.0033 67.0722 23.35C65.7189 22.6967 64.1322 22.37 62.3122 22.37C60.6322 22.37 59.0922 22.6967 57.6922 23.35C56.3389 24.0033 55.1722 24.89 54.1922 26.01C53.2122 27.13 52.4422 28.4133 51.8822 29.86C51.3689 31.3067 51.1122 32.8233 51.1122 34.41C51.1122 35.9967 51.3689 37.5133 51.8822 38.96C52.4422 40.4067 53.2122 41.69 54.1922 42.81C55.1722 43.8833 56.3389 44.7467 57.6922 45.4C59.0922 46.0533 60.6322 46.38 62.3122 46.38C64.1322 46.38 65.7189 46.0533 67.0722 45.4C68.4722 44.7 69.6389 43.79 70.5722 42.67C71.5056 41.55 72.2056 40.2667 72.6722 38.82C73.1389 37.3733 73.3722 35.88 73.3722 34.34ZM110.107 31.47C110.061 30.1633 109.827 28.95 109.407 27.83C109.034 26.6633 108.451 25.66 107.657 24.82C106.911 23.98 105.954 23.3267 104.787 22.86C103.667 22.3467 102.337 22.09 100.797 22.09C99.3975 22.09 98.0675 22.3467 96.8075 22.86C95.5941 23.3267 94.5208 23.98 93.5875 24.82C92.7008 25.66 91.9541 26.6633 91.3475 27.83C90.7875 28.95 90.4608 30.1633 90.3675 31.47H110.107ZM116.757 34.13C116.757 34.5033 116.757 34.8767 116.757 35.25C116.757 35.6233 116.734 35.9967 116.687 36.37H90.3675C90.4141 37.77 90.7175 39.1 91.2775 40.36C91.8841 41.5733 92.6775 42.6467 93.6575 43.58C94.6375 44.4667 95.7575 45.1667 97.0175 45.68C98.3241 46.1933 99.7008 46.45 101.147 46.45C103.387 46.45 105.324 45.96 106.957 44.98C108.591 44 109.874 42.81 110.807 41.41L115.427 45.12C113.654 47.4533 111.554 49.18 109.127 50.3C106.747 51.3733 104.087 51.91 101.147 51.91C98.6275 51.91 96.2941 51.49 94.1475 50.65C92.0008 49.81 90.1575 48.6433 88.6175 47.15C87.0775 45.61 85.8641 43.7667 84.9775 41.62C84.0908 39.4733 83.6475 37.0933 83.6475 34.48C83.6475 31.9133 84.0675 29.5567 84.9075 27.41C85.7941 25.2167 87.0075 23.35 88.5475 21.81C90.0875 20.27 91.9075 19.08 94.0075 18.24C96.1075 17.3533 98.3708 16.91 100.797 16.91C103.224 16.91 105.417 17.3067 107.377 18.1C109.384 18.8933 111.064 20.0367 112.417 21.53C113.817 23.0233 114.891 24.8433 115.637 26.99C116.384 29.09 116.757 31.47 116.757 34.13ZM128.394 17.82C128.488 18.66 128.558 19.6167 128.604 20.69C128.651 21.7167 128.674 22.58 128.674 23.28H128.884C129.304 22.3933 129.864 21.5767 130.564 20.83C131.311 20.0367 132.151 19.36 133.084 18.8C134.018 18.1933 135.044 17.7267 136.164 17.4C137.284 17.0733 138.451 16.91 139.664 16.91C141.811 16.91 143.654 17.2833 145.194 18.03C146.734 18.73 148.018 19.6867 149.044 20.9C150.071 22.1133 150.818 23.5367 151.284 25.17C151.798 26.8033 152.054 28.5533 152.054 30.42V51H145.474V32.59C145.474 31.2367 145.358 29.9533 145.124 28.74C144.938 27.5267 144.564 26.4533 144.004 25.52C143.444 24.5867 142.674 23.84 141.694 23.28C140.714 22.72 139.454 22.44 137.914 22.44C135.301 22.44 133.154 23.4433 131.474 25.45C129.841 27.41 129.024 30.0467 129.024 33.36V51H122.444V24.96C122.444 24.0733 122.421 22.93 122.374 21.53C122.328 20.13 122.258 18.8933 122.164 17.82H128.394ZM166.267 67.8H159.687V17.82H166.127V23H166.337C167.41 21.2267 168.973 19.78 171.027 18.66C173.127 17.4933 175.553 16.91 178.307 16.91C180.78 16.91 183.02 17.3533 185.027 18.24C187.08 19.1267 188.83 20.3633 190.277 21.95C191.77 23.5367 192.913 25.4033 193.707 27.55C194.5 29.65 194.897 31.9133 194.897 34.34C194.897 36.7667 194.5 39.0533 193.707 41.2C192.913 43.3467 191.793 45.2133 190.347 46.8C188.9 48.3867 187.15 49.6467 185.097 50.58C183.043 51.4667 180.733 51.91 178.167 51.91C175.787 51.91 173.547 51.3967 171.447 50.37C169.347 49.3433 167.69 47.8967 166.477 46.03H166.267V67.8ZM188.107 34.34C188.107 32.8 187.873 31.3067 187.407 29.86C186.94 28.4133 186.24 27.13 185.307 26.01C184.373 24.89 183.207 24.0033 181.807 23.35C180.453 22.6967 178.867 22.37 177.047 22.37C175.367 22.37 173.827 22.6967 172.427 23.35C171.073 24.0033 169.907 24.89 168.927 26.01C167.947 27.13 167.177 28.4133 166.617 29.86C166.103 31.3067 165.847 32.8233 165.847 34.41C165.847 35.9967 166.103 37.5133 166.617 38.96C167.177 40.4067 167.947 41.69 168.927 42.81C169.907 43.8833 171.073 44.7467 172.427 45.4C173.827 46.0533 175.367 46.38 177.047 46.38C178.867 46.38 180.453 46.0533 181.807 45.4C183.207 44.7 184.373 43.79 185.307 42.67C186.24 41.55 186.94 40.2667 187.407 38.82C187.873 37.3733 188.107 35.88 188.107 34.34ZM207.202 51H200.622V17.82H207.202V51ZM208.322 5.85C208.322 7.06333 207.879 8.06667 206.992 8.86C206.152 9.65333 205.125 10.05 203.912 10.05C202.699 10.05 201.672 9.65333 200.832 8.86C199.992 8.02 199.572 7.01667 199.572 5.85C199.572 4.63667 199.992 3.63333 200.832 2.84C201.672 2 202.699 1.58 203.912 1.58C205.125 1.58 206.152 2 206.992 2.84C207.879 3.63333 208.322 4.63667 208.322 5.85ZM221.887 51H215.307V-1.92H221.887V51ZM263.451 34.34C263.451 36.9067 262.984 39.2633 262.051 41.41C261.164 43.5567 259.904 45.4233 258.271 47.01C256.684 48.55 254.794 49.7633 252.601 50.65C250.407 51.49 248.051 51.91 245.531 51.91C243.011 51.91 240.654 51.49 238.461 50.65C236.267 49.7633 234.377 48.55 232.791 47.01C231.204 45.4233 229.944 43.5567 229.011 41.41C228.124 39.2633 227.681 36.9067 227.681 34.34C227.681 31.7733 228.124 29.44 229.011 27.34C229.944 25.1933 231.204 23.35 232.791 21.81C234.377 20.27 236.267 19.08 238.461 18.24C240.654 17.3533 243.011 16.91 245.531 16.91C248.051 16.91 250.407 17.3533 252.601 18.24C254.794 19.08 256.684 20.27 258.271 21.81C259.904 23.35 261.164 25.1933 262.051 27.34C262.984 29.44 263.451 31.7733 263.451 34.34ZM256.591 34.34C256.591 32.7533 256.334 31.2367 255.821 29.79C255.354 28.3433 254.654 27.0833 253.721 26.01C252.787 24.89 251.621 24.0033 250.221 23.35C248.867 22.6967 247.304 22.37 245.531 22.37C243.757 22.37 242.171 22.6967 240.771 23.35C239.417 24.0033 238.274 24.89 237.341 26.01C236.407 27.0833 235.684 28.3433 235.171 29.79C234.704 31.2367 234.471 32.7533 234.471 34.34C234.471 35.9267 234.704 37.4433 235.171 38.89C235.684 40.3367 236.407 41.62 237.341 42.74C238.274 43.86 239.417 44.7467 240.771 45.4C242.171 46.0533 243.757 46.38 245.531 46.38C247.304 46.38 248.867 46.0533 250.221 45.4C251.621 44.7467 252.787 43.86 253.721 42.74C254.654 41.62 255.354 40.3367 255.821 38.89C256.334 37.4433 256.591 35.9267 256.591 34.34ZM285.315 23.21H276.495V40.5C276.495 42.5067 276.869 43.9533 277.615 44.84C278.362 45.68 279.552 46.1 281.185 46.1C281.792 46.1 282.445 46.03 283.145 45.89C283.845 45.75 284.475 45.54 285.035 45.26L285.245 50.65C284.452 50.93 283.565 51.14 282.585 51.28C281.652 51.4667 280.672 51.56 279.645 51.56C276.519 51.56 274.115 50.6967 272.435 48.97C270.802 47.2433 269.985 44.6533 269.985 41.2V23.21H263.615V17.82H269.985V8.3H276.495V17.82H285.315V23.21Z" transform="translate(149.289 61)" fill="white"/>
</svg>
