<svg width="670" height="670" viewBox="0 0 670 670" fill="none" xmlns="http://www.w3.org/2000/svg">
<path d="M61.2666 53.1173C61.2666 57.1048 60.5416 60.7661 59.0916 64.1011C57.7141 67.4362 55.7566 70.3362 53.219 72.8012C50.754 75.1937 47.8178 77.0787 44.4102 78.4562C41.0027 79.7613 37.3414 80.4138 33.4264 80.4138C29.5114 80.4138 25.8501 79.7613 22.4426 78.4562C19.035 77.0787 16.0987 75.1937 13.6337 72.8012C11.1687 70.3362 9.21119 67.4362 7.76118 64.1011C6.38367 60.7661 5.69491 57.1048 5.69491 53.1173C5.69491 49.1298 6.38367 45.5047 7.76118 42.2422C9.21119 38.9072 11.1687 36.0434 13.6337 33.6509C16.0987 31.2584 19.035 29.4096 22.4426 28.1046C25.8501 26.7271 29.5114 26.0383 33.4264 26.0383C37.3414 26.0383 41.0027 26.7271 44.4102 28.1046C47.8178 29.4096 50.754 31.2584 53.219 33.6509C55.7566 36.0434 57.7141 38.9072 59.0916 42.2422C60.5416 45.5047 61.2666 49.1298 61.2666 53.1173ZM50.609 53.1173C50.609 50.6523 50.2103 48.296 49.4128 46.0485C48.6878 43.801 47.6003 41.8434 46.1502 40.1759C44.7002 38.4359 42.8877 37.0584 40.7127 36.0434C38.6102 35.0284 36.1814 34.5209 33.4264 34.5209C30.6714 34.5209 28.2063 35.0284 26.0313 36.0434C23.9288 37.0584 22.1525 38.4359 20.7025 40.1759C19.2525 41.8434 18.1288 43.801 17.3313 46.0485C16.6063 48.296 16.2438 50.6523 16.2438 53.1173C16.2438 55.5823 16.6063 57.9386 17.3313 60.1861C18.1288 62.4336 19.2525 64.4274 20.7025 66.1674C22.1525 67.9074 23.9288 69.2849 26.0313 70.2999C28.2063 71.3149 30.6714 71.8224 33.4264 71.8224C36.1814 71.8224 38.6102 71.3149 40.7127 70.2999C42.8877 69.2849 44.7002 67.9074 46.1502 66.1674C47.6003 64.4274 48.6878 62.4336 49.4128 60.1861C50.2103 57.9386 50.609 55.5823 50.609 53.1173ZM80.2275 105.1H70.0049V27.4521H80.01V35.4996H80.3363C82.0038 32.7446 84.4325 30.4971 87.6226 28.7571C90.8851 26.9446 94.6551 26.0383 98.9327 26.0383C102.775 26.0383 106.255 26.7271 109.373 28.1046C112.563 29.4821 115.282 31.4034 117.529 33.8684C119.849 36.3334 121.625 39.2334 122.858 42.5685C124.09 45.831 124.707 49.3473 124.707 53.1173C124.707 56.8873 124.09 60.4398 122.858 63.7749C121.625 67.1099 119.885 70.0099 117.638 72.4749C115.39 74.94 112.672 76.8975 109.481 78.3475C106.291 79.725 102.703 80.4138 98.7152 80.4138C95.0176 80.4138 91.5376 79.6163 88.2751 78.0212C85.0125 76.4262 82.4388 74.1787 80.5538 71.2787H80.2275V105.1ZM114.158 53.1173C114.158 50.7248 113.795 48.4048 113.07 46.1572C112.345 43.9097 111.258 41.9159 109.808 40.1759C108.358 38.4359 106.545 37.0584 104.37 36.0434C102.268 35.0284 99.8027 34.5209 96.9751 34.5209C94.3651 34.5209 91.9726 35.0284 89.7976 36.0434C87.6951 37.0584 85.8825 38.4359 84.36 40.1759C82.8375 41.9159 81.6413 43.9097 80.7713 46.1572C79.9738 48.4048 79.575 50.761 79.575 53.226C79.575 55.6911 79.9738 58.0473 80.7713 60.2948C81.6413 62.5424 82.8375 64.5361 84.36 66.2761C85.8825 67.9437 87.6951 69.2849 89.7976 70.2999C91.9726 71.3149 94.3651 71.8224 96.9751 71.8224C99.8027 71.8224 102.268 71.3149 104.37 70.2999C106.545 69.2124 108.358 67.7987 109.808 66.0586C111.258 64.3186 112.345 62.3249 113.07 60.0773C113.795 57.8298 114.158 55.5098 114.158 53.1173ZM171.229 48.6585C171.157 46.6285 170.794 44.7435 170.142 43.0035C169.562 41.1909 168.655 39.6322 167.423 38.3272C166.263 37.0222 164.776 36.0072 162.964 35.2821C161.224 34.4846 159.158 34.0859 156.765 34.0859C154.59 34.0859 152.524 34.4846 150.566 35.2821C148.681 36.0072 147.014 37.0222 145.564 38.3272C144.186 39.6322 143.026 41.1909 142.084 43.0035C141.214 44.7435 140.706 46.6285 140.561 48.6585H171.229ZM181.56 52.791C181.56 53.371 181.56 53.951 181.56 54.5311C181.56 55.1111 181.524 55.6911 181.452 56.2711H140.561C140.634 58.4461 141.105 60.5123 141.975 62.4699C142.918 64.3549 144.15 66.0224 145.673 67.4724C147.195 68.8499 148.935 69.9374 150.893 70.7349C152.923 71.5324 155.061 71.9312 157.309 71.9312C160.789 71.9312 163.798 71.1699 166.335 69.6474C168.873 68.1249 170.867 66.2761 172.317 64.1011L179.494 69.8649C176.739 73.49 173.477 76.1725 169.707 77.9125C166.009 79.58 161.876 80.4138 157.309 80.4138C153.394 80.4138 149.769 79.7613 146.434 78.4562C143.099 77.1512 140.235 75.3387 137.843 73.0187C135.45 70.6262 133.565 67.7624 132.187 64.4274C130.81 61.0924 130.121 57.3948 130.121 53.3348C130.121 49.3473 130.774 45.686 132.079 42.351C133.456 38.9434 135.341 36.0434 137.734 33.6509C140.126 31.2584 142.954 29.4096 146.216 28.1046C149.479 26.7271 152.995 26.0383 156.765 26.0383C160.535 26.0383 163.943 26.6546 166.988 27.8871C170.105 29.1196 172.715 30.8959 174.818 33.2159C176.993 35.5359 178.66 38.3634 179.82 41.6984C180.98 44.961 181.56 48.6585 181.56 52.791ZM199.639 27.4521C199.784 28.7571 199.893 30.2434 199.966 31.9109C200.038 33.5059 200.074 34.8471 200.074 35.9346H200.401C201.053 34.5571 201.923 33.2884 203.011 32.1284C204.171 30.8959 205.476 29.8446 206.926 28.9746C208.376 28.0321 209.971 27.3071 211.711 26.7996C213.451 26.2921 215.263 26.0383 217.148 26.0383C220.483 26.0383 223.347 26.6183 225.74 27.7783C228.132 28.8658 230.126 30.3521 231.721 32.2371C233.316 34.1221 234.476 36.3334 235.201 38.8709C235.998 41.4084 236.397 44.1272 236.397 47.0272V79H226.175V50.3985C226.175 48.296 225.993 46.3022 225.631 44.4172C225.341 42.5322 224.761 40.8647 223.891 39.4147C223.021 37.9647 221.825 36.8047 220.302 35.9346C218.78 35.0646 216.822 34.6296 214.429 34.6296C210.369 34.6296 207.034 36.1884 204.424 39.3059C201.887 42.351 200.618 46.4472 200.618 51.5948V79H190.396V38.5447C190.396 37.1672 190.359 35.3909 190.287 33.2159C190.214 31.0409 190.106 29.1196 189.961 27.4521H199.639ZM258.477 105.1H248.254V27.4521H258.259V35.4996H258.586C260.253 32.7446 262.682 30.4971 265.872 28.7571C269.135 26.9446 272.905 26.0383 277.182 26.0383C281.025 26.0383 284.505 26.7271 287.622 28.1046C290.812 29.4821 293.531 31.4034 295.779 33.8684C298.099 36.3334 299.875 39.2334 301.107 42.5685C302.34 45.831 302.956 49.3473 302.956 53.1173C302.956 56.8873 302.34 60.4398 301.107 63.7749C299.875 67.1099 298.135 70.0099 295.887 72.4749C293.64 74.94 290.921 76.8975 287.731 78.3475C284.541 79.725 280.952 80.4138 276.965 80.4138C273.267 80.4138 269.787 79.6163 266.525 78.0212C263.262 76.4262 260.688 74.1787 258.803 71.2787H258.477V105.1ZM292.407 53.1173C292.407 50.7248 292.045 48.4048 291.32 46.1572C290.595 43.9097 289.507 41.9159 288.057 40.1759C286.607 38.4359 284.795 37.0584 282.62 36.0434C280.517 35.0284 278.052 34.5209 275.225 34.5209C272.615 34.5209 270.222 35.0284 268.047 36.0434C265.945 37.0584 264.132 38.4359 262.61 40.1759C261.087 41.9159 259.891 43.9097 259.021 46.1572C258.223 48.4048 257.824 50.761 257.824 53.226C257.824 55.6911 258.223 58.0473 259.021 60.2948C259.891 62.5424 261.087 64.5361 262.61 66.2761C264.132 67.9437 265.945 69.2849 268.047 70.2999C270.222 71.3149 272.615 71.8224 275.225 71.8224C278.052 71.8224 280.517 71.3149 282.62 70.2999C284.795 69.2124 286.607 67.7987 288.057 66.0586C289.507 64.3186 290.595 62.3249 291.32 60.0773C292.045 57.8298 292.407 55.5098 292.407 53.1173ZM322.073 79H311.851V27.4521H322.073V79ZM323.813 8.85568C323.813 10.7407 323.125 12.2995 321.747 13.532C320.442 14.7645 318.847 15.3807 316.962 15.3807C315.077 15.3807 313.482 14.7645 312.177 13.532C310.872 12.227 310.219 10.6682 310.219 8.85568C310.219 6.97066 310.872 5.4119 312.177 4.17939C313.482 2.87438 315.077 2.22188 316.962 2.22188C318.847 2.22188 320.442 2.87438 321.747 4.17939C323.125 5.4119 323.813 6.97066 323.813 8.85568ZM344.888 79H334.665V-3.21567H344.888V79ZM409.461 53.1173C409.461 57.1048 408.736 60.7661 407.286 64.1011C405.908 67.4362 403.951 70.3362 401.413 72.8012C398.948 75.1937 396.012 77.0787 392.604 78.4562C389.197 79.7613 385.535 80.4138 381.62 80.4138C377.705 80.4138 374.044 79.7613 370.637 78.4562C367.229 77.0787 364.293 75.1937 361.828 72.8012C359.363 70.3362 357.405 67.4362 355.955 64.1011C354.578 60.7661 353.889 57.1048 353.889 53.1173C353.889 49.1298 354.578 45.5047 355.955 42.2422C357.405 38.9072 359.363 36.0434 361.828 33.6509C364.293 31.2584 367.229 29.4096 370.637 28.1046C374.044 26.7271 377.705 26.0383 381.62 26.0383C385.535 26.0383 389.197 26.7271 392.604 28.1046C396.012 29.4096 398.948 31.2584 401.413 33.6509C403.951 36.0434 405.908 38.9072 407.286 42.2422C408.736 45.5047 409.461 49.1298 409.461 53.1173ZM398.803 53.1173C398.803 50.6523 398.404 48.296 397.607 46.0485C396.882 43.801 395.794 41.8434 394.344 40.1759C392.894 38.4359 391.082 37.0584 388.907 36.0434C386.804 35.0284 384.375 34.5209 381.62 34.5209C378.865 34.5209 376.4 35.0284 374.225 36.0434C372.123 37.0584 370.347 38.4359 368.897 40.1759C367.447 41.8434 366.323 43.801 365.525 46.0485C364.8 48.296 364.438 50.6523 364.438 53.1173C364.438 55.5823 364.8 57.9386 365.525 60.1861C366.323 62.4336 367.447 64.4274 368.897 66.1674C370.347 67.9074 372.123 69.2849 374.225 70.2999C376.4 71.3149 378.865 71.8224 381.62 71.8224C384.375 71.8224 386.804 71.3149 388.907 70.2999C391.082 69.2849 392.894 67.9074 394.344 66.1674C395.794 64.4274 396.882 62.4336 397.607 60.1861C398.404 57.9386 398.803 55.5823 398.803 53.1173ZM443.429 35.8259H429.726V62.6874C429.726 65.8049 430.306 68.0524 431.467 69.4299C432.627 70.7349 434.475 71.3874 437.013 71.3874C437.955 71.3874 438.97 71.2787 440.058 71.0612C441.145 70.8437 442.124 70.5174 442.994 70.0824L443.32 78.4562C442.088 78.8912 440.71 79.2175 439.188 79.435C437.738 79.725 436.215 79.87 434.62 79.87C429.763 79.87 426.029 78.5287 423.419 75.8462C420.881 73.1637 419.613 69.1399 419.613 63.7749V35.8259H409.716V27.4521H419.613V12.662H429.726V27.4521H443.429V35.8259Z" transform="translate(115 422.461)" fill="white"/>
<path fill-rule="evenodd" clip-rule="evenodd" d="M112 224C173.856 224 224 173.856 224 112C224 50.1442 173.856 0 112 0C50.144 0 0 50.1442 0 112C0 126.078 2.59766 139.55 7.3396 151.962L50.9827 76.3696L51.2637 76.5319C70.8264 42.9966 113.839 31.5503 147.497 50.9827C181.248 70.4691 192.812 113.627 173.326 147.378C153.839 181.13 110.682 192.694 76.9302 173.207C61.5918 164.352 50.8357 150.607 45.4937 135.079L21.0632 177.394C41.3984 205.622 74.553 224 112 224ZM152.021 135.078C139.328 157.063 111.216 164.595 89.2307 151.902C67.2458 139.209 59.7134 111.097 72.4062 89.1124C85.0994 67.1276 113.211 59.595 135.196 72.288C157.181 84.9808 164.714 113.093 152.021 135.078ZM129.555 122.845C123.924 132.599 111.451 135.941 101.698 130.309C91.9436 124.678 88.6018 112.206 94.2332 102.452C99.8645 92.6979 112.337 89.356 122.091 94.9874C131.844 100.619 135.186 113.091 129.555 122.845Z" transform="translate(223 147.5)" fill="white"/>
</svg>
