<?xml version="1.0" standalone="no"?>
<!DOCTYPE svg PUBLIC "-//W3C//DTD SVG 20010904//EN"
 "http://www.w3.org/TR/2001/REC-SVG-20010904/DTD/svg10.dtd">
<svg version="1.0" xmlns="http://www.w3.org/2000/svg"
 width="1340.000000pt" height="1340.000000pt" viewBox="0 0 1340.000000 1340.000000"
 preserveAspectRatio="xMidYMid meet">
<metadata>
Created by potrace 1.11, written by Peter Selinger 2001-2013
</metadata>
<g transform="translate(0.000000,1340.000000) scale(0.100000,-0.100000)"
fill="#000000" stroke="none">
<path d="M6468 10755 c-2 -2 -43 -6 -93 -9 -49 -4 -101 -8 -115 -10 -14 -3
-65 -10 -115 -16 -101 -13 -334 -56 -381 -71 -17 -5 -40 -11 -50 -13 -117 -23
-509 -153 -539 -178 -5 -4 -14 -8 -21 -8 -14 0 -166 -70 -299 -137 -163 -82
-403 -229 -525 -321 -25 -19 -58 -43 -74 -55 -32 -24 -179 -142 -230 -186 -43
-36 -334 -327 -376 -376 -19 -22 -62 -74 -95 -115 -33 -41 -62 -77 -65 -80 -3
-3 -17 -21 -30 -40 -26 -37 -27 -38 -63 -85 -38 -50 -153 -228 -213 -332 -298
-513 -485 -1115 -531 -1710 -15 -187 -8 -655 11 -773 3 -14 8 -52 11 -85 18
-155 50 -311 100 -500 19 -71 37 -139 40 -150 2 -11 23 -75 47 -142 37 -108
43 -120 55 -104 11 17 196 335 248 426 23 41 194 337 318 550 38 66 83 145
100 175 16 30 33 60 37 65 5 6 61 102 125 215 65 113 139 242 166 288 27 45
49 87 49 92 0 6 5 10 10 10 6 0 10 4 10 9 0 5 36 71 81 147 44 77 94 162 109
189 121 214 302 524 318 541 10 12 34 46 52 75 34 54 142 208 170 243 113 139
319 341 440 432 388 293 785 454 1285 521 115 15 520 9 640 -10 350 -56 625
-151 908 -312 49 -27 99 -57 112 -65 412 -269 715 -608 923 -1034 86 -175 145
-338 191 -526 28 -117 36 -160 46 -235 3 -16 7 -46 10 -65 21 -140 21 -461 -1
-615 -12 -82 -14 -101 -19 -125 -3 -14 -7 -41 -10 -60 -3 -19 -11 -53 -16 -75
-6 -22 -13 -47 -14 -55 -24 -112 -95 -309 -167 -460 -164 -345 -373 -620 -663
-872 -168 -145 -434 -307 -675 -411 -76 -33 -250 -89 -359 -117 -226 -56 -380
-74 -626 -74 -204 0 -269 6 -480 41 -16 3 -82 18 -145 34 -63 17 -122 32 -130
34 -8 2 -51 17 -95 33 -383 142 -680 329 -955 602 -169 168 -327 375 -434 570
-53 96 -107 213 -151 328 -16 39 -31 72 -34 72 -7 0 -81 -129 -81 -141 0 -5
-4 -9 -10 -9 -5 0 -10 -5 -10 -10 0 -6 -18 -40 -40 -76 -22 -36 -40 -67 -40
-69 0 -1 -30 -54 -66 -116 -37 -63 -78 -134 -92 -159 -14 -25 -52 -89 -84
-143 -32 -55 -58 -101 -58 -103 0 -2 -25 -44 -55 -95 -30 -50 -55 -93 -55 -95
0 -2 -14 -27 -31 -56 -140 -235 -260 -452 -256 -462 7 -18 151 -201 225 -286
122 -140 389 -398 497 -481 17 -13 32 -26 35 -29 3 -4 50 -40 105 -81 542
-406 1182 -671 1857 -768 199 -29 316 -36 578 -36 260 0 405 9 570 35 36 6 81
13 100 16 19 2 69 11 110 20 41 8 84 16 95 18 205 40 543 152 795 264 107 48
330 163 408 211 150 92 437 292 462 321 3 3 18 16 34 28 101 78 379 345 486
468 84 96 95 109 201 251 200 265 394 605 501 878 11 27 26 64 33 80 34 78
140 408 151 470 1 11 12 56 23 100 23 93 40 189 56 305 3 25 8 52 10 60 2 8 7
49 11 90 3 41 10 113 14 160 8 83 5 575 -3 635 -3 17 -8 64 -12 105 -4 41 -9
84 -11 95 -2 10 -6 37 -9 60 -6 41 -12 78 -21 130 -4 24 -26 126 -49 234 -33
150 -129 437 -210 625 -162 379 -384 737 -660 1062 -105 123 -396 406 -511
496 -16 13 -36 29 -44 36 -31 28 -158 121 -251 184 -267 182 -585 344 -889
453 -58 20 -114 41 -125 46 -20 8 -224 66 -260 73 -11 3 -67 16 -125 29 -99
24 -202 43 -279 53 -19 2 -46 6 -60 9 -14 2 -57 7 -94 10 -38 3 -83 9 -100 11
-35 6 -583 14 -589 9z"/>
<path d="M6490 8340 c-265 -39 -516 -135 -716 -275 -66 -47 -78 -55 -153 -119
-225 -190 -413 -481 -502 -776 -11 -36 -22 -77 -24 -92 -3 -15 -10 -40 -16
-55 -6 -15 -10 -29 -9 -31 2 -2 -6 -76 -16 -152 -5 -37 -5 -292 0 -315 2 -11
7 -45 11 -75 49 -382 275 -794 566 -1032 23 -18 51 -41 62 -51 49 -42 188
-128 282 -175 579 -289 1269 -217 1780 186 146 115 331 327 401 457 39 74 84
165 97 195 8 19 20 49 27 65 20 49 59 182 74 259 42 202 42 462 1 666 -111
547 -503 1015 -1020 1218 -133 52 -255 84 -415 108 -93 14 -315 11 -430 -6z
m345 -944 c368 -69 625 -389 610 -761 -9 -204 -108 -406 -263 -535 -88 -74
-215 -137 -312 -155 -14 -3 -45 -8 -70 -13 -93 -16 -222 -4 -325 32 -193 66
-341 194 -428 370 -61 122 -80 203 -80 336 1 166 62 344 158 457 126 149 297
248 465 270 25 3 46 7 48 8 6 5 157 -2 197 -9z"/>
</g>
</svg>
